<?xml version="1.0" standalone="no"?>
<!DOCTYPE svg PUBLIC "-//W3C//DTD SVG 20010904//EN"
 "http://www.w3.org/TR/2001/REC-SVG-20010904/DTD/svg10.dtd">
<svg version="1.0" xmlns="http://www.w3.org/2000/svg"
 width="512.000000pt" height="512.000000pt" viewBox="0 0 512.000000 512.000000"
 preserveAspectRatio="xMidYMid meet">
<metadata>
Created by potrace 1.11, written by Peter Selinger 2001-2013
</metadata>
<g transform="translate(0.000000,512.000000) scale(0.100000,-0.100000)"
fill="#000000" stroke="none">
<path d="M3055 4524 c-231 -54 -330 -81 -356 -98 -72 -48 -69 -16 -69 -770 l0
-676 -27 -29 c-23 -24 -59 -38 -202 -80 -197 -58 -247 -86 -296 -165 -25 -42
-29 -58 -29 -120 0 -61 4 -79 30 -126 18 -31 51 -70 78 -91 105 -80 217 -90
392 -34 125 39 172 72 209 146 l25 48 0 656 c0 697 0 701 47 719 10 4 146 36
302 72 170 38 298 73 317 85 18 11 42 35 53 53 19 31 21 49 21 226 l0 192 -34
34 c-31 31 -39 34 -87 33 -30 -1 -198 -34 -374 -75z m315 -217 l0 -113 -257
-59 c-142 -32 -268 -60 -280 -63 -23 -4 -23 -3 -23 110 l0 115 233 52 c127 29
246 56 262 61 67 18 65 21 65 -103z m-740 -1648 c0 -97 -1 -102 -27 -127 -37
-36 -185 -78 -239 -68 -57 11 -104 63 -104 114 0 67 25 85 190 136 80 24 153
44 163 45 15 1 17 -10 17 -100z"/>
<path d="M705 4306 c-31 -13 -106 -95 -186 -201 -158 -208 -290 -455 -374
-696 -285 -820 -142 -1717 385 -2409 96 -126 160 -188 202 -195 61 -11 108 3
149 44 70 70 65 150 -15 244 -281 332 -457 716 -523 1147 -24 157 -24 491 0
647 67 428 241 806 523 1140 33 38 55 76 60 97 24 131 -102 234 -221 182z"/>
<path d="M4285 4306 c-41 -18 -83 -69 -91 -111 -11 -60 4 -102 60 -168 282
-333 455 -712 523 -1147 24 -159 24 -481 0 -640 -68 -435 -241 -814 -523
-1147 -80 -94 -85 -174 -15 -244 41 -41 88 -55 148 -44 45 8 107 69 216 214
582 772 680 1816 251 2674 -103 206 -221 385 -353 536 -77 88 -140 110 -216
77z"/>
<path d="M1283 3859 c-51 -15 -152 -127 -256 -284 -412 -625 -407 -1424 12
-2046 77 -114 169 -225 210 -251 46 -30 100 -32 151 -6 58 30 90 78 90 134 0
60 -11 82 -75 155 -174 198 -297 455 -352 734 -25 128 -24 396 1 530 50 273
176 535 351 734 64 73 75 95 75 155 0 56 -32 105 -90 134 -47 24 -67 25 -117
11z"/>
<path d="M3720 3848 c-58 -30 -90 -78 -90 -134 0 -60 11 -82 75 -155 130 -148
247 -357 304 -544 53 -173 65 -262 65 -455 0 -193 -12 -282 -65 -455 -57 -187
-174 -396 -304 -544 -64 -73 -75 -95 -75 -155 0 -56 32 -104 90 -134 51 -26
105 -24 151 6 41 26 133 137 210 251 373 554 421 1259 126 1848 -92 182 -261
417 -336 465 -46 30 -100 32 -151 6z"/>
<path d="M1793 3349 c-93 -27 -261 -293 -312 -494 -73 -283 -48 -534 79 -790
94 -191 199 -305 279 -305 41 0 113 41 138 79 33 49 31 115 -4 168 -16 22 -51
75 -80 117 -187 277 -172 666 35 924 53 66 72 106 72 153 0 60 -31 107 -90
137 -47 24 -67 25 -117 11z"/>
<path d="M3210 3338 c-59 -31 -82 -66 -87 -130 -4 -46 0 -59 24 -94 106 -154
134 -201 153 -252 45 -119 55 -173 55 -302 0 -177 -36 -301 -128 -436 -29 -42
-64 -95 -79 -117 -56 -82 -29 -179 62 -224 56 -29 86 -29 138 -1 92 50 248
309 292 483 72 286 47 534 -80 790 -94 191 -199 305 -279 305 -15 0 -47 -10
-71 -22z"/>
</g>
</svg>
